<svg width="640" height="220" viewBox="0 0 640 220" fill="none" xmlns="http://www.w3.org/2000/svg">
  <rect x="20" y="26" width="145" height="168" rx="16" fill="#FFFFFF" stroke="#DCE6E0"/>
  <rect x="46" y="58" width="46" height="46" rx="10" fill="#EFFAF3"/>
  <path d="M58 86C67 77 71 73 80 86" stroke="#1F9F60" stroke-width="2" stroke-linecap="round"/>
  <circle cx="67" cy="70" r="4" fill="#1F9F60"/>
  <rect x="46" y="120" width="92" height="12" rx="6" fill="#DCE7DF"/>
  <rect x="46" y="140" width="64" height="10" rx="5" fill="#E7EEEA"/>

  <rect x="175" y="26" width="145" height="168" rx="16" fill="#FFFFFF" stroke="#DCE6E0"/>
  <rect x="201" y="58" width="46" height="46" rx="10" fill="#EFFAF3"/>
  <path d="M210 88L218 76L226 88L234 76" stroke="#1F9F60" stroke-width="2" stroke-linecap="round" stroke-linejoin="round"/>
  <rect x="201" y="120" width="92" height="12" rx="6" fill="#DCE7DF"/>
  <rect x="201" y="140" width="64" height="10" rx="5" fill="#E7EEEA"/>

  <rect x="330" y="26" width="145" height="168" rx="16" fill="#FFFFFF" stroke="#DCE6E0"/>
  <rect x="356" y="58" width="46" height="46" rx="10" fill="#EFFAF3"/>
  <path d="M379 70V92" stroke="#1F9F60" stroke-width="2" stroke-linecap="round"/>
  <path d="M368 81H390" stroke="#1F9F60" stroke-width="2" stroke-linecap="round"/>
  <rect x="356" y="120" width="92" height="12" rx="6" fill="#DCE7DF"/>
  <rect x="356" y="140" width="64" height="10" rx="5" fill="#E7EEEA"/>

  <rect x="485" y="26" width="145" height="168" rx="16" fill="#FFFFFF" stroke="#DCE6E0"/>
  <rect x="511" y="58" width="46" height="46" rx="10" fill="#EFFAF3"/>
  <path d="M523 91H545V71" stroke="#1F9F60" stroke-width="2" stroke-linecap="round" stroke-linejoin="round"/>
  <path d="M523 71H545V91" stroke="#1F9F60" stroke-width="2" stroke-linecap="round" stroke-linejoin="round"/>
  <rect x="511" y="120" width="92" height="12" rx="6" fill="#DCE7DF"/>
  <rect x="511" y="140" width="64" height="10" rx="5" fill="#E7EEEA"/>
</svg>
