<svg width="520" height="320" viewBox="0 0 520 320" fill="none" xmlns="http://www.w3.org/2000/svg">
  <rect x="20" y="24" width="150" height="112" rx="16" fill="#FFFFFF" stroke="#DCE6E0"/>
  <circle cx="52" cy="56" r="14" fill="#EAF8F0" stroke="#BFE3CE"/>
  <path d="M46 56L51 61L58 52" stroke="#1E9E60" stroke-width="2" stroke-linecap="round" stroke-linejoin="round"/>
  <rect x="42" y="82" width="108" height="12" rx="6" fill="#DCE7DF"/>
  <rect x="42" y="102" width="84" height="10" rx="5" fill="#E6EDE9"/>

  <rect x="184" y="104" width="150" height="112" rx="16" fill="#FFFFFF" stroke="#DCE6E0"/>
  <circle cx="216" cy="136" r="14" fill="#EAF8F0" stroke="#BFE3CE"/>
  <path d="M216 129V143" stroke="#1E9E60" stroke-width="2" stroke-linecap="round"/>
  <path d="M209 136H223" stroke="#1E9E60" stroke-width="2" stroke-linecap="round"/>
  <rect x="206" y="162" width="108" height="12" rx="6" fill="#DCE7DF"/>
  <rect x="206" y="182" width="84" height="10" rx="5" fill="#E6EDE9"/>

  <rect x="348" y="184" width="150" height="112" rx="16" fill="#FFFFFF" stroke="#DCE6E0"/>
  <circle cx="380" cy="216" r="14" fill="#EAF8F0" stroke="#BFE3CE"/>
  <path d="M374 216L379 221L386 212" stroke="#1E9E60" stroke-width="2" stroke-linecap="round" stroke-linejoin="round"/>
  <rect x="370" y="242" width="108" height="12" rx="6" fill="#DCE7DF"/>
  <rect x="370" y="262" width="84" height="10" rx="5" fill="#E6EDE9"/>

  <path d="M170 80L184 112" stroke="#BFD4C7" stroke-width="2" stroke-linecap="round"/>
  <path d="M334 188L348 220" stroke="#BFD4C7" stroke-width="2" stroke-linecap="round"/>
</svg>
